<svg width="20" height="20" viewBox="0 0 20 20" fill="none" xmlns="http://www.w3.org/2000/svg">
<g id="Iconly/Bold/3 User">
<g id="3 User">
<path id="3 Friends" fill-rule="evenodd" clip-rule="evenodd" d="M13.4652 6.8607C13.4652 8.81877 11.9043 10.3888 9.9575 10.3888C8.01075 10.3888 6.44976 8.81877 6.44976 6.8607C6.44976 4.90189 8.01075 3.33333 9.9575 3.33333C11.9043 3.33333 13.4652 4.90189 13.4652 6.8607ZM9.95751 16.6667C7.09819 16.6667 4.65672 16.2134 4.65672 14.4001C4.65672 12.5862 7.08252 12.1163 9.95751 12.1163C12.8168 12.1163 15.2583 12.5697 15.2583 14.3836C15.2583 16.1968 12.8325 16.6667 9.95751 16.6667ZM14.9642 6.92435C14.9642 7.92252 14.6665 8.8524 14.1442 9.62542C14.0905 9.70497 14.1382 9.81229 14.233 9.8288C14.3636 9.85132 14.4986 9.86408 14.6359 9.86783C16.0051 9.90385 17.2341 9.01751 17.5736 7.68311C18.0765 5.70102 16.5998 3.92157 14.7195 3.92157C14.515 3.92157 14.3195 3.94334 14.1293 3.98236C14.1031 3.98837 14.0755 4.00038 14.0606 4.02364C14.0427 4.05216 14.0561 4.09044 14.074 4.1152C14.6389 4.91149 14.9642 5.88264 14.9642 6.92435ZM17.2318 11.2605C18.1519 11.4413 18.757 11.8106 19.0077 12.3472C19.2196 12.7877 19.2196 13.2988 19.0077 13.7386C18.6242 14.5709 17.3878 14.8381 16.9072 14.9072C16.808 14.9222 16.7282 14.8359 16.7386 14.7361C16.9841 12.4298 15.0314 11.3363 14.5262 11.0848C14.5046 11.0736 14.5001 11.0563 14.5023 11.0458C14.5038 11.0383 14.5128 11.0263 14.5292 11.0241C15.6223 11.0038 16.7976 11.1539 17.2318 11.2605ZM5.36423 9.86775C5.50153 9.864 5.63584 9.85199 5.76716 9.82873C5.86193 9.81222 5.90968 9.7049 5.85596 9.62534C5.33364 8.85232 5.03592 7.92244 5.03592 6.92427C5.03592 5.88257 5.36125 4.91142 5.9261 4.11513C5.94401 4.09036 5.95669 4.05209 5.93953 4.02357C5.92461 4.00105 5.89625 3.98829 5.87088 3.98229C5.67986 3.94326 5.48437 3.9215 5.27992 3.9215C3.39957 3.9215 1.9229 5.70095 2.42657 7.68303C2.76607 9.01743 3.99501 9.90378 5.36423 9.86775ZM5.49743 11.0454C5.49967 11.0566 5.49519 11.0731 5.4743 11.0852C4.96839 11.3366 3.01567 12.4301 3.26116 14.7356C3.27161 14.8362 3.19251 14.9217 3.09327 14.9075C2.61274 14.8384 1.37634 14.5713 0.992807 13.7389C0.780148 13.2984 0.780148 12.7881 0.992807 12.3475C1.24352 11.8109 1.84792 11.4416 2.76794 11.26C3.20296 11.1542 4.37743 11.0041 5.47131 11.0244C5.48773 11.0266 5.49594 11.0386 5.49743 11.0454Z" fill="#D2D8E8"/>
</g>
</g>
</svg>
