<svg width="20" height="20" viewBox="0 0 20 20" fill="none" xmlns="http://www.w3.org/2000/svg">
<g id="Iconly/Bold/Document">
<g id="Document">
<path id="Document_2" fill-rule="evenodd" clip-rule="evenodd" d="M6.50833 1.66667H13.4925C16.0667 1.66667 17.5 3.15001 17.5 5.69167V14.3C17.5 16.8833 16.0667 18.3333 13.4925 18.3333H6.50833C3.975 18.3333 2.5 16.8833 2.5 14.3V5.69167C2.5 3.15001 3.975 1.66667 6.50833 1.66667ZM6.73333 5.55V5.54167H9.22416C9.58333 5.54167 9.87499 5.83334 9.87499 6.19084C9.87499 6.55834 9.58333 6.85001 9.22416 6.85001H6.73333C6.37416 6.85001 6.08333 6.55834 6.08333 6.20001C6.08333 5.84167 6.37416 5.55 6.73333 5.55ZM6.73333 10.6167H13.2667C13.625 10.6167 13.9167 10.325 13.9167 9.96667C13.9167 9.60834 13.625 9.31584 13.2667 9.31584H6.73333C6.37416 9.31584 6.08333 9.60834 6.08333 9.96667C6.08333 10.325 6.37416 10.6167 6.73333 10.6167ZM6.73333 14.425H13.2667C13.5992 14.3917 13.85 14.1075 13.85 13.775C13.85 13.4333 13.5992 13.15 13.2667 13.1167H6.73333C6.48333 13.0917 6.24166 13.2083 6.10833 13.425C5.975 13.6333 5.975 13.9083 6.10833 14.125C6.24166 14.3333 6.48333 14.4583 6.73333 14.425Z" fill="#D2D8E8"/>
</g>
</g>
</svg>
