<svg width="25" height="25" viewBox="0 0 25 25" fill="none" xmlns="http://www.w3.org/2000/svg">
<g id="Iconly/Bold/Notification">
<g id="Notification">
<path id="Notification_2" fill-rule="evenodd" clip-rule="evenodd" d="M18.7071 9.79633C18.7071 11.0523 19.039 11.7925 19.7695 12.6456C20.3231 13.2741 20.5 14.0808 20.5 14.956C20.5 15.8302 20.2128 16.6601 19.6373 17.3339C18.884 18.1417 17.8215 18.6573 16.7372 18.747C15.1659 18.8809 13.5937 18.9937 12.0005 18.9937C10.4063 18.9937 8.83505 18.9263 7.26375 18.747C6.17846 18.6573 5.11602 18.1417 4.36367 17.3339C3.78822 16.6601 3.5 15.8302 3.5 14.956C3.5 14.0808 3.6779 13.2741 4.23049 12.6456C4.98384 11.7925 5.29392 11.0523 5.29392 9.79633V9.3703C5.29392 7.68834 5.71333 6.58852 6.577 5.51186C7.86106 3.9417 9.91935 3 11.9558 3H12.0452C14.1254 3 16.2502 3.98702 17.5125 5.62466C18.3314 6.67916 18.7071 7.73265 18.7071 9.3703V9.79633ZM9.07367 21.0608C9.07367 20.5573 9.53582 20.3266 9.96318 20.2279C10.4631 20.1222 13.5093 20.1222 14.0092 20.2279C14.4366 20.3266 14.8987 20.5573 14.8987 21.0608C14.8738 21.5402 14.5926 21.9653 14.204 22.2352C13.7001 22.628 13.1088 22.8767 12.4906 22.9664C12.1487 23.0107 11.8128 23.0117 11.4828 22.9664C10.8636 22.8767 10.2723 22.628 9.76938 22.2342C9.37978 21.9653 9.09852 21.5402 9.07367 21.0608Z" fill="#6D6BE5"/>
</g>
<g id="Notification_3">
<rect x="16" y="1" width="8" height="8" rx="4" fill="#FF776F"/>
<rect x="16" y="1" width="8" height="8" rx="4" stroke="#EDF2FF" stroke-width="2"/>
</g>
</g>
</svg>
